<svg id="Capa_1" enable-background="new 0 0 512 512" height="512" viewBox="0 0 512 512" width="512" xmlns="http://www.w3.org/2000/svg"><g><g><path d="m24.517 152.522h462.967v284.461h-462.967z" fill="#ffb2c1"/><path d="m57.512 344.249c0-73.345 26.995-140.382 71.587-191.727h-104.583v284.46h48.012c-9.733-29.141-15.016-60.319-15.016-92.733z" fill="#ff9db0"/><path d="m7.5 168.366v18.175c0 27.449 22.251 49.7 49.7 49.7 27.448 0 49.7-22.251 49.7-49.7v-18.175l-49.7-15.844z" fill="#ff748f"/><path d="m106.9 168.366v18.175c0 27.449 22.251 49.7 49.7 49.7 27.449 0 49.7-22.251 49.7-49.7v-18.175l-49.7-15.844z" fill="#fbe29f"/><path d="m206.3 168.366v18.175c0 27.449 22.251 49.7 49.7 49.7 27.448 0 49.7-22.251 49.7-49.7v-18.175l-49.7-15.844z" fill="#ff748f"/><path d="m305.7 168.366v18.175c0 27.449 22.251 49.7 49.7 49.7 27.449 0 49.7-22.251 49.7-49.7v-18.175l-49.7-15.844z" fill="#fbe29f"/><path d="m405.1 168.366v18.175c0 27.449 22.251 49.7 49.7 49.7 27.449 0 49.7-22.251 49.7-49.7v-18.175l-49.7-15.844z" fill="#ff748f"/><path d="m42.585 157.181-35.085 11.185v18.175c0 27.449 22.251 49.7 49.7 49.7 8.318 0 16.153-2.054 23.042-5.667-17.737-20.93-30.82-45.924-37.657-73.393z" fill="#fd5f7e"/><path d="m453.734 11.107h-395.468c-28.037 0-50.766 22.729-50.766 50.767v106.492h497v-106.492c0-28.038-22.729-50.767-50.766-50.767z" fill="#bc9bdd"/><path d="m183.079 278.166h-52.957c-16.625 0-30.103 13.477-30.103 30.103v124.069h113.163v-124.069c-.001-16.626-13.478-30.103-30.103-30.103z" fill="#ff748f"/><path d="m418.228 278.166h-130.682c-12.407 0-22.464 10.058-22.464 22.464v45.308c0 12.407 10.058 22.464 22.464 22.464h130.681c12.407 0 22.464-10.058 22.464-22.464v-45.308c.001-12.407-10.057-22.464-22.463-22.464z" fill="#fbe29f"/><path d="m133.743 336.07c0-20.964 5.307-40.689 14.65-57.904h-18.271c-16.625 0-30.103 13.478-30.103 30.103v124.068h81.056c-28.787-22.231-47.332-57.081-47.332-96.267z" fill="#fd5f7e"/><path d="m473.138 416.983h-434.276c-17.321 0-31.362 14.041-31.362 31.362v27.713c0 13.716 11.119 24.835 24.835 24.835h447.33c13.716 0 24.835-11.119 24.835-24.835v-27.713c0-17.321-14.041-31.362-31.362-31.362z" fill="#fbe29f"/><g><path d="m37.2 113.135c0-37.819 11.554-72.938 31.318-102.027h-10.252c-28.037 0-50.766 22.728-50.766 50.766v106.492h38.254c-5.549-17.419-8.554-35.973-8.554-55.231z" fill="#b08bd7"/></g><g fill="#f9d888"><path d="m66.63 416.983h-27.768c-17.321 0-31.362 14.041-31.362 31.362v27.713c0 13.716 11.119 24.835 24.835 24.835h70.62c-16.234-25.556-28.619-53.795-36.325-83.91z"/><path d="m306.534 291.777c0-4.602.264-9.142.76-13.612h-19.747c-12.407 0-22.464 10.058-22.464 22.464v45.308c0 12.407 10.058 22.464 22.464 22.464h46.052c-16.924-20.945-27.065-47.598-27.065-76.624z"/></g></g><g><path d="m229.4 143.59c4.142 0 7.5-3.358 7.5-7.5v-92.706c0-4.142-3.358-7.5-7.5-7.5s-7.5 3.358-7.5 7.5v37.263h-49.154v-37.263c0-4.142-3.358-7.5-7.5-7.5s-7.5 3.358-7.5 7.5v92.707c0 4.142 3.358 7.5 7.5 7.5s7.5-3.358 7.5-7.5v-40.444h49.154v40.443c0 4.142 3.358 7.5 7.5 7.5z"/><path d="m107.318 128.59c-10.349 0-20.349-4.216-26.749-11.279-2.781-3.069-7.523-3.303-10.594-.521-3.069 2.782-3.302 7.525-.521 10.594 9.196 10.148 23.351 16.206 37.863 16.206 17.271 0 32.312-11.295 34.986-26.274 3.076-17.229-10.557-28.801-24.34-33.885-12.06-4.448-23.236-9.308-25.908-10.483-3.241-2.336-4.819-6.097-4.235-10.166.721-5.024 4.55-9.047 10.241-10.761 15.269-4.6 28.994 6.415 29.286 6.653 3.171 2.644 7.885 2.228 10.544-.935 2.665-3.17 2.255-7.902-.916-10.567-.806-.678-20.008-16.513-43.241-9.514-11.257 3.392-19.213 12.202-20.761 22.993-1.439 10.026 2.902 19.668 11.33 25.163.331.216.679.405 1.04.566.531.237 13.178 5.866 27.43 11.124 10.632 3.921 16.014 10.182 14.765 17.175-1.205 6.744-8.7 13.911-20.22 13.911z"/><path d="m384.5 35.884c-4.152 0-7.5 3.389-7.5 7.5v92.707c0 4.142 3.358 7.5 7.5 7.5s7.5-3.358 7.5-7.5v-32.81c5.981-.033 14.129-.073 18.313-.073 18.844 0 34.174-15.101 34.174-33.662s-15.331-33.662-34.174-33.662zm44.988 33.661c0 10.116-8.781 18.662-19.174 18.662-4.163 0-12.197.039-18.176.072-.101-18.715-.048-14.465-.115-37.396h18.291c10.393.001 19.174 8.547 19.174 18.662z"/><path d="m252.681 89.737c0 29.695 24.158 53.854 53.853 53.854s53.853-24.159 53.853-53.854-24.158-53.853-53.853-53.853-53.853 24.158-53.853 53.853zm92.706 0c0 21.424-17.429 38.854-38.853 38.854s-38.853-17.43-38.853-38.854c0-21.423 17.429-38.853 38.853-38.853s38.853 17.429 38.853 38.853z"/><path d="m418.228 375.902c16.522 0 29.964-13.442 29.964-29.964v-45.308c0-16.522-13.442-29.964-29.964-29.964h-130.682c-16.522 0-29.964 13.442-29.964 29.964v45.308c0 16.522 13.442 29.964 29.964 29.964zm-145.646-29.964v-45.308c0-8.251 6.713-14.964 14.964-14.964h130.681c8.251 0 14.964 6.713 14.964 14.964v45.308c0 8.251-6.713 14.964-14.964 14.964h-130.681c-8.251 0-14.964-6.713-14.964-14.964z"/><path d="m32.335 508.393h447.33c17.83 0 32.335-14.505 32.335-32.335v-27.713c0-13.335-6.753-25.12-17.017-32.122v-189.021c10.498-10.375 17.017-24.769 17.017-40.66v-57.593c0-4.142-3.358-7.5-7.5-7.5s-7.5 3.358-7.5 7.5v31.917h-482v-98.992c0-23.857 19.409-43.267 43.267-43.267h395.467c23.857 0 43.267 19.409 43.267 43.267v37.075c0 4.142 3.358 7.5 7.5 7.5s7.5-3.358 7.5-7.5v-37.075c0-32.128-26.138-58.267-58.267-58.267h-395.467c-32.129 0-58.267 26.139-58.267 58.267v124.668c0 15.891 6.519 30.284 17.017 40.66v72.571c0 4.142 3.358 7.5 7.5 7.5s7.5-3.358 7.5-7.5v-61.88c7.615 3.754 16.373 5.849 25.184 5.849h.015c20.706 0 39.57-11.214 49.685-28.906 10.19 17.827 29.203 28.906 49.685 28.906h.015s.01 0 .015 0c20.819 0 39.629-11.305 49.685-28.906 10.22 17.877 29.255 28.906 49.685 28.906h.015s.01 0 .015 0c20.817 0 39.636-11.317 49.685-28.906 10.205 17.85 29.192 28.906 49.685 28.906h.015s.01 0 .015 0c20.591 0 39.503-11.099 49.685-28.906 10.204 17.845 29.196 28.906 49.685 28.906h.015c8.576 0 17.212-1.958 25.183-5.849v172.201c-2.057-.373-4.565-.612-6.845-.612h-252.457v-101.213c0-20.734-16.869-37.603-37.603-37.603h-52.957c-20.734 0-37.603 16.868-37.603 37.603v101.214h-53.657c-2.292 0-4.752.239-6.846.612v-80.321c0-4.142-3.358-7.5-7.5-7.5s-7.5 3.358-7.5 7.5v86.45c-10.263 7.002-17.016 18.786-17.016 32.121v27.713c0 17.829 14.505 32.335 32.335 32.335zm464.665-321.851c0 23.292-18.956 42.165-42.155 42.199-.015 0-.03.001-.045.001-23.158 0-42.2-18.824-42.2-42.2v-10.676h84.4zm-141.6 42.2c-23.301 0-42.2-18.961-42.2-42.2v-10.676h84.4v10.676c0 23.174-18.828 42.2-42.2 42.2zm-99.4 0c-23.269 0-42.2-18.931-42.2-42.2 0-.003 0-.006 0-.01v-10.666h84.4v10.676c0 23.174-18.828 42.2-42.2 42.2zm-99.4 0c-23.158 0-42.2-18.824-42.2-42.2v-10.676h84.4v10.676c0 23.195-18.865 42.2-42.2 42.2zm-141.6-42.2v-10.676h84.4v10.676c0 23.174-18.827 42.2-42.2 42.2-.015 0-.03-.001-.045-.001-23.179-.034-42.155-18.874-42.155-42.199zm92.519 121.727c0-12.463 10.14-22.603 22.603-22.603h52.957c12.463 0 22.603 10.14 22.603 22.603v101.214h-98.163zm-92.519 140.076c0-13.093 10.635-23.813 23.78-23.86.028 0 .055-.002.082-.002h434.276c.028 0 .055.002.082.002 13.422.048 23.78 11.021 23.78 23.86v27.713c0 9.559-7.776 17.335-17.335 17.335h-447.33c-9.559 0-17.335-7.776-17.335-17.335z"/></g></g></svg>